<?xml version="1.0" encoding="UTF-8"?>
<!-- Generator: Adobe Illustrator 17.0.0, SVG Export Plug-In . SVG Version: 6.00 Build 0)  -->
<svg width="333.54px" height="800px" enable-background="new 0 0 333.54 800" version="1.1" viewBox="0 0 333.54 800" xml:space="preserve" xmlns="http://www.w3.org/2000/svg" xmlns:cc="http://creativecommons.org/ns#" xmlns:dc="http://purl.org/dc/elements/1.1/" xmlns:rdf="http://www.w3.org/1999/02/22-rdf-syntax-ns#"><metadata><rdf:RDF><cc:Work rdf:about=""><dc:format>image/svg+xml</dc:format><dc:type rdf:resource="http://purl.org/dc/dcmitype/StillImage"/><dc:title/></cc:Work></rdf:RDF></metadata>
	<path d="m130.28 536.05c-0.39 0.04-0.61 0.06-0.83 0.08-1.42 0.1-1.87-0.18-1.92-1.58-0.08-2.35-0.09-4.71 0-7.06 0.1-2.32-0.17-4.57-0.64-6.83-0.8-3.86-1.56-7.72-2.31-11.59-0.16-0.8-0.23-1.63-0.27-2.45-0.17-3.83-1.73-7.3-2.76-10.91-1.74-6.05-3.43-12.11-5.17-18.16-0.23-0.78-0.58-1.55-0.99-2.24-2.16-3.6-3.38-7.57-3.93-11.64-0.6-4.41-0.69-8.9-0.82-13.36-0.09-3.17 0.02-6.35 0.21-9.51 0.17-2.81 0.44-5.64 0.93-8.41 0.59-3.34 0.73-6.64 0.27-10-0.13-0.96-0.06-2.01 0.18-2.95 0.72-2.85 1.58-5.66 2.37-8.49 0.06-0.22 0.08-0.45 0.14-0.86-0.85-0.46-1.71-0.94-2.58-1.39-3.29-1.71-6.58-3.45-9.27-6.07-3.72-3.62-7.23-7.41-10.23-11.66-1.3-1.84-1.17-3.75-0.4-5.7 0.28-0.7 0.75-1.33 1.18-1.96 0.83-1.22 1.54-2.46 1.73-3.99 0.14-1.09 0.69-2.12 0.96-3.2 1.1-4.32 2.26-8.64 3.22-12.99 0.51-2.29 0.59-4.67 1.03-6.98 0.24-1.24 0.76-2.44 1.24-3.63 1.59-3.87 3.05-7.71 2.43-12.07-0.28-1.95 0.14-3.98 0.12-5.98-0.02-2.64-0.11-5.28-0.25-7.92-0.25-4.75-0.59-9.5-0.85-14.26-0.32-5.7-0.61-11.39-0.89-17.09-0.03-0.52 0.08-1.05 0.08-1.58 0-1.46-0.02-2.93-0.04-4.39-0.01-0.35-0.09-0.7-0.08-1.05 0.12-4.09 0.13-8.2 0.4-12.28 0.32-4.93 0.74-9.85 1.32-14.75 0.69-5.95 1.64-11.88 2.38-17.83 0.4-3.21 0.59-6.44 0.84-9.66 0.12-1.58 0.22-3.17 0.2-4.76-0.01-0.73-0.22-1.51-0.55-2.16-2.06-4.03-4.24-8-6.26-12.05-0.91-1.83-1.56-3.8-2.33-5.7-2.01-4.96-3.99-9.92-6.05-14.85-0.27-0.66-0.83-1.29-1.41-1.71-2.6-1.92-5.37-3.64-7.88-5.66-3.3-2.65-6.41-5.54-9.63-8.3-1.91-1.65-3.87-3.23-5.78-4.88-1.78-1.53-3.5-3.13-5.29-4.65-0.94-0.79-1.98-1.45-2.95-2.2-1.54-1.19-3.04-2.42-4.58-3.6-5.84-4.47-11.8-8.79-17.51-13.42-4.79-3.89-9.38-8.04-13.91-12.23-3.1-2.87-6.01-5.94-8.86-9.06-2.33-2.56-4.34-5.37-6.32-8.24-2.38-3.46-4.26-7.18-6.29-10.82-1.83-3.28-2.2-6.67-0.99-10.36 1.76-5.39 4.83-9.91 8.45-14.14 5.56-6.49 11.72-12.4 17.85-18.33 3.25-3.14 6.67-6.12 10.01-9.18 0.13-0.12 0.28-0.23 0.38-0.37 2.26-3.06 5.57-3.97 9.09-4.37 3.56-0.4 7.14-0.66 10.69-1.1 1.14-0.14 2.32-0.49 3.35-1.01 7.12-3.57 14.41-6.69 22.14-8.68 2.09-0.54 4.3-0.75 6.46-0.82 2.43-0.09 4.59-0.52 6.42-2.3 1.35-1.3 2.81-2.56 4.42-3.49 1.86-1.08 3.9-1.91 5.94-2.6 1.17-0.39 2.31-0.73 3.41-1.33 1.3-0.71 2.58-1.71 4.27-1.27 0.27 0.07 0.7-0.15 0.95-0.36 3.8-3.2 8.33-5.02 12.81-6.97 4.04-1.76 8.19-2.73 12.61-2.97 3.57-0.2 7.1-1.01 10.65-1.5 2.45-0.34 4.9-0.71 7.36-0.85 2.59-0.15 5.18 0.17 7.65 1.03 1.7 0.59 2.15 1.51 1.89 3.28-0.03 0.22-0.07 0.45-0.12 0.75 2.14 0.33 4.22 0.65 6.31 0.96 0.67 0.1 1.14-0.16 1.42-0.78 0.05-0.11 0.12-0.2 0.17-0.31 3.46-6.71 8.96-11.4 15.16-15.43 4.36-2.84 9.09-4.65 14.17-5.64 1.9-0.37 3.82-0.69 5.73-1.03 2.32-0.42 4.58-0.06 6.79 0.63 1.91 0.6 3.87 1.11 5.66 1.96 4.14 1.96 8.33 3.87 11.74 7.05 1.76 1.64 3.71 3.14 5.19 5.01 2.53 3.21 4.2 6.92 5.19 10.9 0.17 0.68 0.21 1.4 0.19 2.1-0.11 3.7-0.19 7.41-0.42 11.1-0.14 2.12-0.24 4.2 0.24 6.3 0.43 1.88 0.06 3.72-0.52 5.53-0.19 0.59-0.19 1.24-0.3 2.02 0.48-0.1 0.75-0.14 1.01-0.21 1.74-0.48 2.62-0.05 3.31 1.63 0.64 1.56 0.8 3.19 0.68 4.85-0.23 3.11-0.33 6.24-0.73 9.33-0.64 5.03-2.43 9.57-6.37 13-0.56 0.49-1.25 1-1.95 1.14-1.03 0.21-1.3 0.83-1.51 1.68-1.05 4.35-2.15 8.68-4.05 12.76-0.24 0.51-0.29 1.11-0.45 1.72 0.4 0.23 0.67 0.45 0.99 0.57 2.86 1.08 5.9 1.84 8.54 3.31 2.31 1.28 4.22 3.31 6.2 5.12 0.46 0.42 0.47 1.31 0.77 1.95 1.52 3.19 3.03 6.37 4.63 9.52 0.26 0.52 0.87 0.97 1.42 1.21 7.49 3.28 14.87 6.81 22.63 9.44 6.26 2.12 10.96 6.34 14.74 11.6 1.88 2.62 3.48 5.45 5.19 8.2 1.52 2.44 3.11 4.86 4.51 7.37 1.4 2.5 2.61 5.11 3.9 7.68 0.18 0.37 0.24 0.85 0.52 1.11 1.15 1.1 1.31 2.59 1.65 3.99 0.68 2.8 1.42 5.59 1.87 8.43 0.25 1.6 0.08 3.29-0.09 4.91-0.5 4.73 0.03 9.38 0.89 14.03 0.71 3.81 2.48 6.96 5.41 9.43 2.02 1.7 3.36 3.55 3.2 6.4-0.11 1.97 0.34 3.97 0.52 5.96 0.2 2.12 0.61 4.18 1.4 6.17 1.48 3.74 2.37 7.63 2.81 11.62 0.34 3.03 0.74 6.08 0.78 9.12 0.04 2.48 0.36 4.91 0.58 7.36 0.33 3.63 0.47 7.28 0.71 10.92 0.2 2.99 0.53 5.98 0.62 8.98 0.07 2.34-0.1 4.69-0.27 7.03-0.04 0.61-0.41 1.23-0.74 1.78-0.62 1.03-0.71 2.1-0.45 3.23 1.06 4.52 2.12 9.04 3.22 13.55 0.35 1.44 0.8 2.82 2.09 3.77 0.51 0.38 0.75 0.94 0.68 1.7-0.13 1.4-0.06 2.81-0.1 4.22-0.05 2.11-0.13 4.23-0.17 6.34-0.08 4.3-0.07 8.59-0.26 12.88-0.06 1.44-0.55 2.88-0.98 4.28-0.95 3.11-1.61 6.25-1.42 9.54 0.06 0.92-0.2 1.86-0.36 2.78-0.3 1.7-0.05 2.23 1.48 2.92 2.66 1.19 2.8 1.3 1.8 4.04-1.34 3.64-2.97 7.15-4.87 10.55-0.86 1.53-1.48 3.2-2.21 4.8-0.68 1.49-1.33 3.01-2.08 4.47-1.56 3.03-3.2 6.02-4.77 9.05-1.46 2.81-2.87 5.64-4.32 8.52 0.33 0.3 0.57 0.54 0.84 0.75 1.47 1.11 1.53 1.12 0.92 2.92-0.73 2.16-1.47 4.33-2.35 6.43-0.83 1.99-0.91 1.96-2.8 2.62 0.12 1.48 0.28 2.97 0.33 4.46 0.03 1.09-0.1 2.19-0.14 3.29-0.01 0.29 0 0.58 0.07 0.86 0.45 1.93 0.2 3.87 0 5.8-0.21 2.01-1.27 3.39-3.12 4.37-3.01 1.58-6.02 3.22-8.31 5.86-0.73 0.84-1.68 1.23-2.82 1.22-0.69-0.01-1.39 0.18-2.08 0.18-1.47-0.02-2.68 0.71-3.98 1.22-1.57 0.61-3.26 0.93-4.88 1.43-0.53 0.16-1.05 0.43-1.52 0.74-1.13 0.73-2.15 1.7-3.36 2.23-1.09 0.47-2.38 0.47-3.82 0.72 0.08 0.98 0.11 2.14 0.28 3.27 0.2 1.34 0.47 2.67 0.8 3.98 0.76 2.98 0.94 6.02 0.95 9.08 0 0.12-0.01 0.24 0.01 0.35 0.67 4.23-0.07 8.18-2.29 11.87-0.37 0.62-0.52 1.45-0.54 2.19-0.13 4.88-0.18 9.77-0.3 14.65-0.18 6.95-1.18 13.83-1.85 20.74-0.76 7.86-2.14 15.62-3.29 23.41-0.29 1.98-0.46 3.98-0.82 5.94-0.21 1.14-0.61 2.27-1.08 3.34-0.53 1.23-0.97 1.27-1.96 0.39-0.24-0.22-0.48-0.44-0.95-0.88-0.7 2.72-1.48 5.18-1.95 7.7-0.51 2.77-0.62 5.61-1.12 8.39-1.09 5.99-1.13 12.05-1.42 18.1-0.12 2.53-0.23 5.06-0.48 7.57-0.14 1.39-0.52 2.77-0.85 4.14-0.72 2.97-1.48 5.93-2.22 8.89-0.39 1.54-0.84 3.06-1.16 4.61-0.17 0.85-0.29 1.76-0.16 2.6 0.28 1.86 0.65 3.71 1.11 5.53 1.39 5.48 1.52 11.06 1.25 16.66-0.08 1.56-0.83 3.02-0.79 4.66 0.09 3.25 0.54 6.43 1.14 9.61 0.61 3.17 1.16 6.36 1.72 9.54 0.52 2.89 1.02 5.79 1.54 8.68 0.74 4.17 1.4 8.36 1.32 12.61-0.18 8.65-0.39 17.3-0.58 25.95-0.01 0.24 0.02 0.48-0.03 0.7-0.43 1.97 0.3 3.37 2.01 4.38 0.49 0.29 0.81 0.86 1.28 1.2 1.46 1.04 1.3 2.31 0.7 3.74-1.02 2.43-2.63 4.45-4.28 6.45-1.16 1.41-2.39 2.76-3.57 4.15-0.42 0.49-0.82 0.98-0.54 1.74 0.69 1.88 0.43 3.84 0.45 5.78 0.03 3.12-0.04 6.21 0.65 9.3 0.5 2.26 0.09 4.57-0.81 6.74-0.51 1.22-0.61 1.34-1.75 2.07 1.56 3.47 3.03 6.98 4.72 10.38 1.31 2.63 2.88 5.12 4.37 7.65 1.9 3.23 4.07 6.31 5.29 9.92 0.43 1.27 1.05 2.48 1.65 3.68 1.64 3.26 1.59 6.67 1.01 10.14-0.66 3.94-1.35 7.87-2.05 11.8-0.09 0.51-0.25 1.03-0.49 1.49-1.04 1.98-1.98 4.03-3.25 5.86-0.77 1.1-1.96 2.09-3.18 2.66-2.17 1.01-4.51 1.65-6.77 2.47-2.7 0.98-5.39 0.45-7.94-0.38-4.07-1.33-8.16-2.67-11.95-4.75-1.41-0.78-2.52-1.79-3.62-2.98-2.49-2.69-3.55-6.07-4.87-9.31-0.67-1.64-0.72-3.55-0.94-5.35-0.2-1.63-0.26-3.27-0.34-4.91-0.13-2.57-0.72-4.98-2.27-7.11-0.79-1.09-1.84-1.79-3.01-2.35-3.01-1.43-5.69-3.27-7.43-6.22-0.81-1.36-1.69-2.68-2.37-4.1-1.02-2.12-0.6-4.4-0.35-6.6 0.16-1.48 0.06-2.89-0.19-4.36-0.52-3.14-0.56-6.3 0.31-9.42 0.43-1.56-0.07-2.03-2.04-1.99-0.22 2.35-0.45 4.73-0.65 7.11-0.05 0.64 0.02 1.3-0.01 1.94-0.11 2.14 0.08 4.18 1.22 6.12 0.44 0.75 0.46 1.8 0.53 2.72 0.27 3.31-0.29 6.56-0.91 9.8-0.17 0.86-0.38 1.73-0.46 2.6-0.07 0.83-0.51 1.17-1.21 1.53-1.04 0.53-1.97 1.26-2.95 1.91-1.32 0.87-2.58 1.85-3.98 2.58-2.66 1.37-5.36 2.68-8.11 3.85-1.86 0.78-3.61 1.61-5.19 2.92-1.34 1.12-2.97 1.89-4.46 2.83-2.97 1.89-5.93 3.8-8.89 5.71-4.35 2.8-8.95 4.85-14.17 5.43-2.97 0.33-5.9 1.02-8.86 1.47-1.97 0.3-3.95 0.5-5.93 0.7-0.51 0.05-1.07-0.01-1.56-0.17-3.36-1.08-6.7-2.19-10.04-3.31-0.39-0.13-0.74-0.35-1.12-0.51-1.47-0.6-2.3-1.65-2.61-3.25-0.26-1.38-0.73-2.72-1.15-4.07-0.17-0.55-0.34-1.16-0.69-1.6-1.21-1.55-1.38-3.35-1.33-5.18 0.04-1.23 0.22-2.46 0.35-3.69 0.15-1.44 0.79-2.62 1.59-3.84 1.46-2.22 2.97-4.35 4.79-6.29 2.77-2.96 5.4-6.06 8.21-8.98 1.37-1.43 2.67-2.93 4.33-4.11 1.1-0.78 1.94-2 2.25-3.48 0.14-0.65 0.61-1.26 1.01-1.83 0.7-1 1.46-1.95 2.18-2.94 0.17-0.23 0.36-0.51 0.38-0.78 0.15-2.05 1.36-3.58 2.51-5.12 0.43-0.58 0.41-1 0.03-1.57-0.31-0.48-0.58-1.04-0.68-1.59-0.59-3.17-1.08-6.37-1.69-9.54-0.57-3 0.1-5.87 0.93-8.68 0.44-1.49 0.17-2.48-0.72-3.68-2.87-3.87-5.6-7.84-8.38-11.77-0.13-0.19-0.22-0.41-0.3-0.62-1.13-3.09-2.42-6.13-3.36-9.28-2.1-7.04-4.1-14.12-5.99-21.22-0.44-1.66-0.52-3.51-0.35-5.23 0.65-6.91 1.78-13.76 3.52-20.49 0.46-1.79 0.53-3.53 0.32-5.39-0.4-3.55-0.58-7.14-0.62-10.72-0.06-4.82 0.05-9.65 0.18-14.47 0.12-4.23 0.4-8.45 0.53-12.68 0.04-1.34-0.13-2.69-0.28-4.02-0.32-2.74-0.68-5.47-1.06-8.21-0.11-0.81-0.3-1.61-0.53-2.39-1.27-4.39-2.67-8.75-3.8-13.18-0.71-2.78-1.03-5.65-1.5-8.49-0.89-5.34-1.77-10.67-2.65-16.01-0.26-1.55-0.51-2.99-0.77-4.48zm48.97-458.44c-3.38-0.89-5.76-2.62-6.74-5.6-0.7-2.14-0.93-4.49-1.09-6.76-0.18-2.52 0.01-5.06-0.05-7.59-0.06-2.3-0.15-4.59 0.65-6.8 0.05-0.13-0.07-0.32-0.1-0.48-0.85-0.54-1.58-0.17-2.36 0.13-2.02 0.8-4.04 1.6-6.1 2.3-2.56 0.87-5.16 1.62-7.72 2.48-1.53 0.51-1.51 0.55-1.56 2.1-0.01 0.24-0.01 0.47-0.01 0.71-0.03 2.56-1.03 4.34-3.65 5.16-2.97 0.93-5.93 1.94-8.79 3.17-4.98 2.14-4.51 2.02-9.84 0.91-0.75-0.16-1.49-0.34-2.24-0.47-0.45-0.08-0.91-0.07-1.44-0.11-0.15 0.65-0.29 1.21-0.42 1.77-0.2 0.8-0.66 1.36-1.45 1.64-2.65 0.95-5.29 1.94-7.96 2.86-2.77 0.95-5.58 1.81-8.35 2.77-0.43 0.15-0.76 0.6-0.94 0.75-0.86 0.19-1.61 0.2-2.21 0.51-2 1.06-4.12 1.81-6.35 2.04-1.88 0.19-3.6 0.43-4.5 2.37-3.88 3.72-7.87 7.25-13.14 8.95-1.51 0.49-2.54 1.56-2.91 3.23 2.41 1.11 4.15 2.79 5.29 5.1 0.47 0.95 0.98 1.88 1.56 2.77 0.27 0.42 0.67 0.84 1.11 1.04 3.25 1.51 6.78 1.08 10.21 1.3 0.58 0.04 1.17-0.49 1.78-0.61 0.5-0.1 1.05-0.05 1.55 0.06 1.8 0.4 3.47 1.11 4.94 2.24 0.63 0.48 1.25 0.75 2.1 0.37 2.55-1.14 5.14-0.97 7.74-0.08 1.11 0.38 2.25 0.72 3.39 0.95 0.71 0.14 1.55-0.14 2.19 0.11 1.38 0.54 2.77 0.49 4.17 0.37 3.19-0.28 6.35-0.11 9.49 0.49 1.96 0.38 3.92 0.8 5.86 1.28 1.59 0.4 3.18 0.83 4.71 1.4 1.54 0.57 3.02 1.31 4.53 1.98 0.62 0.28 1.17 0.31 1.82-0.1 2.29-1.47 4.59-0.34 4.94 2.38 0.03 0.22 0.1 0.44 0.15 0.64 0.89 0.31 1.52-0.06 2.14-0.57 0.54-0.44 1.1-1.01 1.73-1.17 1.93-0.48 3.12-1.75 4.16-3.31 0.29-0.43 0.7-0.8 1.13-1.1 1.22-0.87 2.46-0.96 3.77-0.12 1.89 1.22 3.3 0.98 4.7-0.85 1.67-2.2 3.25-4.47 4.93-6.66 0.69-0.9 0.94-1.84 0.86-2.95-0.15-2.17-0.24-4.34-0.36-6.52-0.16-2.99-0.25-5.99-0.5-8.98-0.15-1.84-0.54-3.68-0.82-5.5zm97.05 192.16c-1.47 2.04-1.44 2.03-0.9 4.04 1.02 3.83 1.84 7.71 0.65 11.64-0.92 3.03-0.9 6.11-0.98 9.21-0.08 3.34-0.02 6.74-0.6 10-0.67 3.8-1.96 7.49-3.01 11.22-0.29 1.02-0.62 2-0.3 3.1 1.17 4 2.21 8.05 3.46 12.02 1.57 5 3.29 9.95 2.71 15.33-0.02 0.19 0.07 0.39 0.15 0.75 3.21-2.54 5.07-5.93 7.61-8.81-0.38-0.61-0.65-1.13-0.99-1.6-1.33-1.84-2-3.92-1.79-6.14 0.25-2.64 0.44-5.24-0.33-7.83-0.03-0.11-0.01-0.23-0.01-0.35-0.03-5.76-0.24-11.53 1.22-17.19 0.37-1.44 0.18-2.89-0.21-4.35-0.52-1.92-0.9-3.88-1.2-5.85-0.35-2.26-0.39-4.57-0.86-6.8-0.84-3.96-1.9-7.88-2.89-11.81-0.54-2.2-1.15-4.39-1.73-6.58zm-1.49 84.32c-1.28 1.63-1.76 3.12-0.86 4.88 0.54 1.05 1.02 2.12 1.5 3.19 0.29 0.64 0.7 1.28 0.78 1.96 0.42 3.67 1.32 7.3 0.87 11.04-0.11 0.94-0.02 1.91-0.02 2.86 0.85-0.84 1.47-1.7 1.83-2.66 0.58-1.54 1.55-2.64 3.09-3.17 1.73-0.6 1.44-2.25 1.9-3.5 0.39-1.06-0.55-1.47-1.14-1.96-3.07-2.56-5.13-5.78-6.5-9.49-0.38-1.03-0.91-2-1.45-3.15zm-64.59 314.79c-0.42 2-0.64 3.68-1.15 5.27-0.38 1.19-0.44 2.29-0.05 3.43 1.05 3.05 2.12 6.09 3.2 9.13 0.05 0.13 0.24 0.2 0.51 0.4 0.1-0.17 0.2-0.32 0.28-0.47 1.16-2.23 2.31-4.47 3.49-6.69 0.95-1.79 0.75-3.25-0.81-4.53-1.88-1.55-3.48-3.31-4.68-5.44-0.18-0.29-0.41-0.56-0.79-1.1zm-1.34-37.97 0.36 0.09c0.24-0.75 0.48-1.51 0.72-2.26 1.33-4.15 1.8-8.35 0.87-12.66-0.26-1.2-0.5-2.42-0.6-3.64-0.47-5.44-0.89-10.88-1.34-16.32-0.05-0.58 0-1.24-0.78-1.71-0.02 0.51-0.05 0.85-0.05 1.2-0.01 1.76 0.16 3.54-0.05 5.28-0.45 3.79 0 7.53 0.73 11.19 0.91 4.56 0.86 9.1 0.59 13.68-0.11 1.71-0.3 3.43-0.45 5.15zm-2.38-47.92c0.2-0.04 0.41-0.07 0.61-0.11 0-3.63 0.09-7.25-0.04-10.87-0.06-1.73-1.1-3.2-1.96-5.05-2.49 5.93-1.39 11.07 1.39 16.03z"/>
</svg>
